<svg width="48" height="48" viewBox="0 0 48 48" fill="none" xmlns="http://www.w3.org/2000/svg">
<g clip-path="url(#clip0_1315_10302)">
<path fill-rule="evenodd" clip-rule="evenodd" d="M33.2101 13.1C30.7101 10.72 27.5401 9.5 24.0001 9.5C17.7401 9.5 12.4301 13.72 10.5401 19.41L2.56006 13.22C6.51006 5.38 14.6201 0 24.0001 0C30.4701 0 35.9001 2.38 40.0601 6.25L33.2101 13.1ZM46.6 20C46.83 21.46 46.98 22.98 46.98 24.55C46.98 31.84 44.4 38.02 39.89 42.2L39.8841 42.1954C35.9245 45.8721 30.4767 48.0001 23.9998 48.0001C14.6198 48.0001 6.5098 42.6201 2.5498 34.7701L2.55354 34.7672C0.917582 31.5303 0 27.8749 0 24C0 20.12 0.92 16.46 2.55 13.22L10.53 19.41C10.04 20.86 9.77 22.4 9.77 24C9.77 25.597 10.049 27.1343 10.5274 28.582L10.5298 28.5801C12.4298 34.2701 17.7398 38.4901 23.9998 38.4901C27.2398 38.4901 30.0098 37.6401 32.1598 36.1901L32.1667 36.1955C34.683 34.4955 36.3605 31.9774 36.94 29.02H24V20H46.6Z" fill="white"/>
</g>
<defs>
<clipPath id="clip0_1315_10302">
<rect width="48" height="48" fill="white"/>
</clipPath>
</defs>
</svg>
