<svg width="24" height="24" viewBox="0 0 24 24" fill="none" xmlns="http://www.w3.org/2000/svg">
<rect x="3.75" y="3.75" width="16.5" height="16.5" rx="1.25" stroke="#fff" stroke-width="1.5"/>
<path fill="#fff" fill-rule="evenodd" clip-rule="evenodd" d="M9.99999 7.50003C9.99999 6.73365 10.6211 6 11.5746 6.25371C14.1719 6.51345 15.9494 7.2714 17.0346 8.31162C18.1377 9.36895 18.7412 10.8334 18.5 12C18.2645 13.139 17.5821 14.0821 16.5 14.5C15.3801 14.9325 14 14.8776 13 14C12.2007 13.2985 11.7963 12.3183 10.7536 11.8433C10 11.5 9.00002 12 9.00002 13C9.00002 13.7071 9.64647 14.1464 10 14.5C10.7912 15.2913 11.0815 16.5324 10.3279 17.4709C9.92689 17.9704 9.30771 18.275 8.57021 18.2042C7.86479 18.1364 7 17.5 6.59951 16.711C6.25812 16.0385 6.37928 14.3838 6.37928 14.3838C6.37928 14.3838 6.59951 15.5 6.99999 16C7.4938 16.6165 8.00002 17 8.50002 17C9.00002 17 9.33055 16.711 9.50002 16.5C9.80732 16.1173 9.5 15.5 8.9683 15.0289C7.91075 14.092 7.90808 12.5 9.00002 11.5C9.51573 11.0277 10.1967 10.8409 11 11C11.7834 11.1551 12.5622 11.6179 13.4947 12.4363C14.3115 13.1531 15.0528 13.1917 15.5892 12.9845C16.1633 12.7628 16.7655 12.2287 16.7655 11.5396C16.7655 10.6428 16.3891 10.373 16 10C15.6554 9.66963 13.8281 8.98654 11.4254 8.74627C10.6211 8.66583 9.99999 8.2664 9.99999 7.50003Z" />
</svg>
