<svg width="128" height="128" viewBox="0 0 128 128" fill="none" xmlns="http://www.w3.org/2000/svg">
<g clip-path="url(#clip0_1321_10332)">
<mask id="mask0_1321_10332" style="mask-type:alpha" maskUnits="userSpaceOnUse" x="0" y="0" width="128" height="128">
<path d="M0 0C0 0 40.6133 0 64 0C87.3868 0 128 0 128 0C128 0 128 40.6133 128 64C128 87.3868 128 128 128 128C128 128 87.3868 128 64 128C40.6133 128 0 128 0 128C0 128 0 87.3868 0 64C0 40.6133 0 0 0 0Z" fill="#C6C1BE"/>
</mask>
<g mask="url(#mask0_1321_10332)">
<path d="M0 0C0 0 40.6133 0 64 0C87.3868 0 128 0 128 0C128 0 128 40.6133 128 64C128 87.3868 128 128 128 128C128 128 87.3868 128 64 128C40.6133 128 0 128 0 128C0 128 0 87.3868 0 64C0 40.6133 0 0 0 0Z" fill="#C6C1BE"/>
<g opacity="0.5">
<g opacity="0.16">
<line x1="121" y1="2.5" x2="121" y2="130.5" stroke="white"/>
<line x1="107" y1="2.5" x2="107" y2="130.5" stroke="white"/>
<line x1="79" y1="2.5" x2="79" y2="130.5" stroke="white"/>
<line x1="51" y1="2.5" x2="51" y2="130.5" stroke="white"/>
<line x1="93" y1="2.5" x2="93" y2="130.5" stroke="white"/>
<line x1="37" y1="2.5" x2="37" y2="130.5" stroke="white"/>
<line x1="23" y1="2.5" x2="23" y2="130.5" stroke="white"/>
<line x1="9" y1="2.5" x2="9" y2="130.5" stroke="white"/>
<line x1="125.5" y1="106" x2="-2.5" y2="106" stroke="white"/>
<line x1="125.5" y1="120" x2="-2.5" y2="120" stroke="white"/>
<line x1="125.5" y1="92" x2="-2.5" y2="92" stroke="white"/>
<line x1="125.5" y1="36" x2="-2.5" y2="36" stroke="white"/>
<line x1="125.5" y1="78" x2="-2.5" y2="78" stroke="white"/>
<line x1="125.5" y1="50" x2="-2.5" y2="50" stroke="white"/>
<line x1="125.5" y1="22" x2="-2.5" y2="22" stroke="white"/>
<line x1="125.5" y1="8" x2="-2.5" y2="7.99999" stroke="white"/>
</g>
<g opacity="0.5">
<line x1="64" y1="1.5" x2="64" y2="129.5" stroke="white"/>
<line x1="129" y1="64" x2="1" y2="64" stroke="white"/>
</g>
</g>
<path d="M34.3181 66.4672L35.6185 65.6389C35.7723 65.8573 35.9375 66.0832 36.1165 66.3154L36.1428 66.3897C36.1974 66.544 36.2681 66.7424 36.3036 66.8358L37.5251 66.3716L36.3036 66.8358C37.0054 68.6828 37.9595 70.8445 38.8276 72.6502C39.2622 73.5541 39.6811 74.3811 40.042 75.0436C40.3767 75.6582 40.7285 76.2587 41.0235 76.6062C41.5345 77.2083 42.3934 77.7782 43.2145 78.1713C43.7079 78.4076 44.3174 78.6431 44.9557 78.7629C45.7245 80.6883 46.5366 82.449 47.2631 83.4432C48.1911 84.713 50.1311 86.2884 52.0224 87.6872C53.7044 88.9312 55.5053 90.1473 56.8992 91.0627C56.9661 92.684 56.9355 94.5332 56.7741 96.097C54.9213 96.8456 53.2256 97.8973 51.8231 99.2914C51.6308 99.4499 51.4057 99.6333 51.1601 99.8333L51.1601 99.8332L51.1599 99.8335L51.1493 99.8422L51.149 99.8424L51.0993 99.8828C50.2885 100.543 49.222 101.412 48.6256 101.982C41.3453 106.897 38.23 108.421 36.3835 109.325L36.3631 109.335L37.0224 110.682L36.3631 109.335L36.3056 109.363C35.4132 109.799 34.6773 110.159 33.8973 110.73L34.7831 111.941L33.8973 110.73C31.6345 112.386 25.1487 118.29 25.5929 128.008L25.6584 129.439H27.0913H102.675H104.108L104.174 128.008C104.618 118.29 98.1321 112.386 95.8693 110.73C95.0894 110.159 94.3535 109.799 93.4611 109.363L93.4035 109.334L93.3858 109.326C91.727 108.514 89.0544 107.207 83.2768 103.406C83.1775 103.224 83.0686 103.049 82.9701 102.897C82.7488 102.554 82.4741 102.166 82.1803 101.771C81.5991 100.991 80.903 100.132 80.3113 99.4643C80.2753 99.4216 80.2381 99.3812 80.2 99.343L80.1147 99.2576L80.0169 99.1869C78.633 98.1875 77.085 97.3455 75.4443 96.6676C75.1926 94.896 75.0452 92.7724 75.0092 90.9377C76.2232 90.0858 77.7606 88.9711 79.1957 87.7842C80.8482 86.4175 82.5692 84.7934 83.3849 83.264C83.8878 82.3212 84.7251 80.5041 85.6413 78.3495C86.0523 78.1779 86.4458 77.9745 86.798 77.7615C87.3238 77.4435 87.8595 77.0427 88.23 76.6062C88.5249 76.2587 88.8767 75.6582 89.2114 75.0436C89.5723 74.3811 89.9912 73.5541 90.4258 72.6502C90.9938 71.4688 91.5986 70.135 92.1454 68.8367C93.0155 68.2515 94.2082 66.9831 95.268 65.3471C96.4015 63.5974 97.4861 61.2719 97.9017 58.5842C98.4562 54.9981 97.8708 50.6539 97.4321 47.3979L97.4168 47.2849L97.4168 47.2848L97.4067 47.2093L97.4066 47.2092C97.1938 45.6288 97.025 44.3518 96.9955 43.4359C96.9654 42.5032 97.0075 41.6754 97.0511 40.8301L97.0536 40.7816C97.1476 38.9598 97.2437 37.0997 96.3996 34.6827C94.0704 28.0124 89.9499 21.6624 85.8099 17.5558C83.7514 15.5139 81.5867 13.925 79.5382 13.1919C78.1367 12.6904 76.6632 12.5617 75.3538 13.0723C74.9381 12.4457 74.3914 11.9275 73.7318 11.5264C72.5257 10.7929 71.045 10.5105 69.5016 10.5003C66.4238 10.4799 62.597 11.5395 58.7409 13.2204C51.0449 16.5749 42.5077 22.7314 38.6676 29.2916C38.0229 30.393 34.5079 36.7038 32.3247 44.1317C31.233 47.8461 30.4522 51.9127 30.5667 55.7865C30.6815 59.6666 31.7002 63.4589 34.3181 66.4672Z" fill="#1E1618" stroke="white" stroke-width="3"/>
<path d="M34.7117 111.94C36.8142 110.402 38.5063 110.659 50.4541 102.505H79.1699C91.1177 110.659 92.8099 110.402 94.9123 111.94C97.0147 113.479 103.014 118.966 102.604 127.939H27.02C26.6098 118.966 32.6093 113.479 34.7117 111.94Z" fill="#1E1618" stroke="black"/>
<path d="M52.7616 100.403C51.7491 101.421 52.0437 102.198 51.1207 102.864L55.3255 105.223L74.9658 106.761C77.444 105.77 79.7852 101.275 79.0673 100.403C71.6833 95.07 58.8284 94.3008 52.7616 100.403Z" fill="#C1A393"/>
<path d="M57.2228 99.8902C58.5567 98.2493 58.5561 90.8652 58.044 87.9936C63.0864 86.9168 74.0428 85.2554 73.6326 87.0193C73.1198 89.2243 73.5813 99.0184 74.9658 100.711C76.3503 102.403 78.2989 102.864 79.7347 103.787C81.1704 104.71 66.5049 112.864 64.1974 112.864C61.8899 112.864 52.4034 104.915 52.2496 103.787C52.0958 102.659 55.8624 101.564 57.2228 99.8902Z" fill="#B57C65"/>
<path d="M90.9635 63.4827C89.7329 62.8161 88.0407 63.2263 87.5792 64.4057C86.2528 68.337 81.5199 76.6771 82.7591 77.2252C83.918 77.7378 86.2973 76.4813 87.0151 75.6356C87.7329 74.7899 90.1104 69.898 91.4764 66.303C91.983 64.9697 92.1942 64.1493 90.9635 63.4827Z" fill="#CA8B73"/>
<path d="M38.1473 63.4827C39.378 62.8161 41.0701 63.2263 41.5316 64.4057C42.8581 68.337 47.5909 76.6771 46.3518 77.2252C45.1929 77.7378 42.8136 76.4813 42.0958 75.6356C41.378 74.7899 39.0005 69.898 37.6345 66.303C37.1279 64.9697 36.9167 64.1493 38.1473 63.4827Z" fill="#CA8B73"/>
<path d="M48.4029 82.5581C46.4544 79.8917 43.07 69.3797 42.5059 66.303C41.2582 58.3036 39.0806 41.71 40.3523 39.3307C41.9419 36.3565 55.3255 28.8187 61.4788 28.6136C67.6322 28.4084 83.9387 31.639 85.5283 33.9465C87.1179 36.254 88.9126 59.483 88.9126 63.2263C88.9126 66.9696 83.5541 79.6255 81.9901 82.5581C80.3492 85.6348 73.5292 90.0594 72.0421 91.1216C69.6013 92.865 62.5044 92.9163 59.6841 91.1216C57.8264 89.9394 50.2653 85.1066 48.4029 82.5581Z" fill="#C08670"/>
<path d="M35.3784 65.4826C26.097 54.8167 38.6602 32.1518 39.8908 30.0494C47.1248 17.6913 72.7601 6.10247 74.6061 15.3325C78.9135 10.5637 90.3998 22.2551 94.9123 35.1772C96.0037 38.3026 95.3225 40.305 95.425 43.4843C95.5276 46.6635 97.1172 53.381 96.348 58.3549C95.5957 63.2201 92.3996 66.867 91.1689 67.6362C91.4646 66.7494 91.9647 65.3574 91.9381 64.6108C91.8955 63.4149 91.0943 63.0725 90.3998 63.0725C89.7332 64.2519 88.5538 65.9953 87.2718 67.2773C87.9897 64.9697 87.0154 62.047 86.8616 61.4829C86.759 62.2521 86.6052 62.5597 86.2975 63.0725C85.9386 60.765 84.0926 54.9193 82.3491 52.9707C80.5059 50.9107 78.0418 47.6378 75.9906 40.5614C73.8882 48.6121 67.7348 53.2784 63.5813 55.1244C65.0171 53.022 65.7863 51.8426 66.658 49.6889C64.812 52.4785 60.2141 55.5346 57.9407 56.6115C57.7356 55.1757 57.2228 52.4067 57.5305 50.2017C56.9664 50.8171 56.7613 51.8426 56.0947 53.1246C55.5307 51.3811 55.4794 47.8429 56.0947 45.3303C54.1461 47.1763 44.4033 57.2268 43.8905 58.4061C43.3777 59.5855 42.9675 67.4311 42.9675 70.2514C41.9932 69.9437 40.096 64.098 39.5319 63.0212C38.3012 63.3288 36.8654 63.8929 37.3782 65.5851C36.1988 64.098 35.6347 62.8673 34.763 61.8419C34.6092 63.0725 34.5579 63.6365 35.3784 65.4826Z" fill="#241715" stroke="#1E1815"/>
<path fill-rule="evenodd" clip-rule="evenodd" d="M59.4998 56.2602C59.722 56.3849 59.8012 56.6662 59.6765 56.8885C59.5518 57.1108 59.2705 57.1899 59.0482 57.0652C56.491 55.6307 52.6584 55.5858 49.8388 55.5858C52.8642 54.9705 56.7963 54.7436 59.4998 56.2602Z" fill="black" fill-opacity="0.5"/>
<path d="M52.0437 66.4568C49.4614 66.4568 47.5826 64.1526 48.1466 63.8929C52.0437 62.0981 58.7099 63.6365 58.7099 63.8929C58.7099 64.1493 56.4536 66.4568 52.0437 66.4568Z" fill="#C4A697"/>
<mask id="mask1_1321_10332" style="mask-type:alpha" maskUnits="userSpaceOnUse" x="48" y="63" width="11" height="4">
<path d="M52.0437 66.4568C49.4614 66.4568 47.5826 64.1526 48.1466 63.8929C52.0437 62.0981 58.7099 63.6365 58.7099 63.8929C58.7099 64.1493 56.4536 66.4568 52.0437 66.4568Z" fill="#BF9FDF"/>
</mask>
<g mask="url(#mask1_1321_10332)">
<ellipse cx="52.9668" cy="63.3801" rx="1.69218" ry="1.38451" fill="#6F342C"/>
</g>
<path d="M58.6844 63.5528C58.7013 63.5651 58.7099 63.576 58.7099 63.5852C58.7027 63.5745 58.6942 63.5636 58.6844 63.5528C58.2337 63.2224 51.9035 61.8551 48.1466 63.5852C50.8264 61.7144 57.9931 62.7851 58.6844 63.5528Z" fill="#6F342C"/>
<path fill-rule="evenodd" clip-rule="evenodd" d="M71.1005 56.2602C70.8782 56.3849 70.7991 56.6662 70.9238 56.8885C71.0485 57.1108 71.3298 57.1899 71.5521 57.0652C74.1093 55.6307 77.9419 55.5858 80.7615 55.5858C77.7361 54.9705 73.804 54.7436 71.1005 56.2602Z" fill="black" fill-opacity="0.5"/>
<path d="M78.5566 66.4568C81.1389 66.4568 83.0177 64.1526 82.4537 63.8929C78.5566 62.0981 71.8904 63.6365 71.8904 63.8929C71.8904 64.1493 74.1467 66.4568 78.5566 66.4568Z" fill="#C4A697"/>
<mask id="mask2_1321_10332" style="mask-type:alpha" maskUnits="userSpaceOnUse" x="71" y="63" width="12" height="4">
<path d="M78.5566 66.4568C81.1389 66.4568 83.0177 64.1526 82.4537 63.8929C78.5566 62.0981 71.8904 63.6365 71.8904 63.8929C71.8904 64.1493 74.1467 66.4568 78.5566 66.4568Z" fill="#BF9FDF"/>
</mask>
<g mask="url(#mask2_1321_10332)">
<ellipse cx="1.69218" cy="1.38451" rx="1.69218" ry="1.38451" transform="matrix(-1 0 0 1 79.3257 61.9956)" fill="#6F342C"/>
</g>
<path d="M71.9159 63.5528C71.899 63.5651 71.8904 63.576 71.8904 63.5852C71.8976 63.5745 71.9061 63.5636 71.9159 63.5528C72.3666 63.2224 78.6968 61.8551 82.4537 63.5852C79.7739 61.7144 72.6072 62.7851 71.9159 63.5528Z" fill="#6F342C"/>
<path d="M70.9279 60.5303C71.2557 60.7659 72.5934 58.8839 74.0421 59.33C74.0421 58.8839 73.2474 57.278 72.7176 57.278C71.5586 57.5011 70.6001 60.2948 70.9279 60.5303Z" fill="#AD6A57"/>
<path d="M59.7355 60.5085C59.4278 60.7421 58.1723 58.8707 56.8126 59.3131C56.8126 58.8707 57.5585 57.278 58.0558 57.278C59.1435 57.4992 60.0431 60.275 59.7355 60.5085Z" fill="#AD6A57"/>
<path fill-rule="evenodd" clip-rule="evenodd" d="M61.9483 75.6924C61.9431 75.7414 61.9404 75.7909 61.9404 75.8407C61.9404 77.0302 62.6865 77.9944 64.5556 77.9944C66.4247 77.9944 68.7091 77.0302 68.7091 75.8407C68.7091 75.7909 68.7065 75.7414 68.7012 75.6924C67.8091 76.0394 66.6246 76.2509 65.3248 76.2509C64.025 76.2509 62.8405 76.0394 61.9483 75.6924Z" fill="#A45247"/>
<path d="M68.3502 86.3527C67.7349 86.7629 64.0941 86.8142 63.4275 86.3527C63.4275 85.8399 68.0015 85.5323 68.6579 85.5323C69.1706 85.6861 68.9655 85.9425 68.3502 86.3527Z" fill="#A45247"/>
<path d="M70.1962 83.4811C69.4783 82.3017 63.4275 83.8914 61.8891 84.3016C63.53 83.7375 69.6834 82.1479 70.1962 83.4811Z" fill="#6F342C"/>
<path d="M68.2476 109.941C69.6712 109.503 80.2685 101.919 79.1002 100.44C79.0892 100.427 79.0782 100.415 79.0673 100.403C79.0791 100.415 79.0901 100.427 79.1002 100.44C80.3814 101.881 82.2448 104.353 82.0415 104.608C79.016 108.402 70.7603 113.376 69.2732 113.838C67.7861 114.299 64.6069 114.556 62.7096 113.838C60.79 113.111 51.7361 108.146 49.2235 103.531C49.1118 103.326 51.5823 101.377 52.7617 100.403C50.9535 101.941 61.7866 108.966 63.4788 109.633C65.171 110.3 66.8119 110.382 68.2476 109.941Z" fill="#AE9288"/>
<path d="M69.779 83.5997C70.2919 84.215 70.8047 84.0099 70.2919 82.8818C70.2919 83.4458 70.1893 83.7535 69.779 83.5997Z" fill="#A45247"/>
</g>
</g>
<defs>
<clipPath id="clip0_1321_10332">
<rect width="128" height="128" fill="white"/>
</clipPath>
</defs>
</svg>
